# xmcd
#
# Track frame offsets: 
#        150
#        25740
#        47589
#        61607
#        81594
#        100409
#        117278
#        143746
#        165322
#
# Disc length: 2403 seconds
#
# Revision: 1
# Processed by: cddbd v1.5.2PL0 Copyright (c) Steve Scherf et al.
# Submitted via: ExactAudioCopyFreeDBPlugin 1.0
#
DISCID=6b096109
DTITLE=Roy Ayers  - Ubiquity
DYEAR=2009
DGENRE=Fusion, Funk
TTITLE0=Pretty Brown Skin (R. Ayers, M. Birdsong)
TTITLE1=Raindrops Keep Fallin' On My Head (B. Bacharach, H. David)
TTITLE2=I Can't Help Myself (R. Ayers)
TTITLE3=Love (E. Birdsong, M. Birdsong)
TTITLE4=The Fuzz (R. Ayers)
TTITLE5=Hummin' (N. Adderly, G. McDaniels) (R. Ayers, E. Birdsong)
TTITLE6=Can You Dig It? (E. Birdsong, M. Birdsong)
TTITLE7=Painted Desert (J. Zawinul)
TTITLE8=He Gives Us All His Love (R. Newman) (1971)
EXTD=
EXTT0=
EXTT1=
EXTT2=
EXTT3=
EXTT4=
EXTT5=
EXTT6=
EXTT7=
EXTT8=
PLAYORDER=
